<svg width="130" height="39" viewBox="0 0 130 39" fill="none" xmlns="http://www.w3.org/2000/svg">
<rect x="0.5" y="0.5" width="129" height="38" rx="19" stroke="black"/>
<path d="M37.3795 19.264C36.0888 19.264 34.9668 19.0513 34.0135 18.626C33.0602 18.2007 32.2902 17.6213 31.7035 16.888L33.6175 14.776C34.1748 15.392 34.7835 15.8467 35.4435 16.14C36.1182 16.4333 36.8002 16.58 37.4895 16.58C38.2815 16.58 38.8828 16.404 39.2935 16.052C39.7042 15.7 39.9095 15.194 39.9095 14.534C39.9095 13.9913 39.7482 13.5807 39.4255 13.302C39.1175 13.0233 38.5895 12.8253 37.8415 12.708L36.2355 12.444C34.8568 12.2093 33.8595 11.7033 33.2435 10.926C32.6275 10.134 32.3195 9.17333 32.3195 8.044C32.3195 6.56267 32.8035 5.41867 33.7715 4.612C34.7395 3.79067 36.0962 3.38 37.8415 3.38C39.0295 3.38 40.0635 3.56333 40.9435 3.93C41.8235 4.29667 42.5348 4.79533 43.0775 5.426L41.2075 7.516C40.7968 7.06133 40.3128 6.70933 39.7555 6.46C39.1982 6.196 38.5675 6.064 37.8635 6.064C36.3822 6.064 35.6415 6.67267 35.6415 7.89C35.6415 8.418 35.8028 8.814 36.1255 9.078C36.4628 9.342 37.0055 9.54 37.7535 9.672L39.3595 9.958C40.6062 10.178 41.5668 10.6473 42.2415 11.366C42.9162 12.0847 43.2535 13.0527 43.2535 14.27C43.2535 14.9887 43.1288 15.656 42.8795 16.272C42.6302 16.8733 42.2562 17.4013 41.7575 17.856C41.2588 18.296 40.6428 18.6407 39.9095 18.89C39.1908 19.1393 38.3475 19.264 37.3795 19.264ZM45.9729 19V3.644H55.7849V6.35H49.2729V9.87H55.5649V12.576H49.2729V16.294H55.7849V19H45.9729ZM59.0763 19V3.644H65.0163C65.7643 3.644 66.4316 3.76133 67.0183 3.996C67.605 4.216 68.0963 4.53867 68.4923 4.964C68.903 5.38933 69.211 5.90267 69.4163 6.504C69.6216 7.10533 69.7243 7.78 69.7243 8.528C69.7243 9.276 69.6216 9.95067 69.4163 10.552C69.211 11.1533 68.903 11.6667 68.4923 12.092C68.0963 12.5173 67.605 12.8473 67.0183 13.082C66.4316 13.302 65.7643 13.412 65.0163 13.412H62.3983V19H59.0763ZM62.3983 10.75H64.1803C64.9576 10.75 65.493 10.6033 65.7863 10.31C66.0943 10.0167 66.2483 9.53267 66.2483 8.858V8.198C66.2483 7.52333 66.0943 7.03933 65.7863 6.746C65.493 6.45267 64.9576 6.306 64.1803 6.306H62.3983V10.75ZM72.2677 19V3.644H78.2077C78.9557 3.644 79.623 3.76133 80.2097 3.996C80.7964 4.216 81.2877 4.53867 81.6837 4.964C82.0944 5.38933 82.4024 5.90267 82.6077 6.504C82.813 7.10533 82.9157 7.78 82.9157 8.528C82.9157 9.276 82.813 9.95067 82.6077 10.552C82.4024 11.1533 82.0944 11.6667 81.6837 12.092C81.2877 12.5173 80.7964 12.8473 80.2097 13.082C79.623 13.302 78.9557 13.412 78.2077 13.412H75.5897V19H72.2677ZM75.5897 10.75H77.3717C78.149 10.75 78.6844 10.6033 78.9777 10.31C79.2857 10.0167 79.4397 9.53267 79.4397 8.858V8.198C79.4397 7.52333 79.2857 7.03933 78.9777 6.746C78.6844 6.45267 78.149 6.306 77.3717 6.306H75.5897V10.75ZM90.3871 19.264C88.3338 19.264 86.8158 18.5673 85.8331 17.174C84.8651 15.7807 84.3811 13.83 84.3811 11.322C84.3811 8.814 84.8651 6.86333 85.8331 5.47C86.8158 4.07667 88.3338 3.38 90.3871 3.38C92.4404 3.38 93.9511 4.07667 94.9191 5.47C95.9018 6.86333 96.3931 8.814 96.3931 11.322C96.3931 13.83 95.9018 15.7807 94.9191 17.174C93.9511 18.5673 92.4404 19.264 90.3871 19.264ZM90.3871 16.602C91.3258 16.602 91.9711 16.2573 92.3231 15.568C92.6898 14.864 92.8731 13.8887 92.8731 12.642V9.98C92.8731 8.748 92.6898 7.78733 92.3231 7.098C91.9711 6.394 91.3258 6.042 90.3871 6.042C89.4484 6.042 88.7958 6.394 88.4291 7.098C88.0771 7.78733 87.9011 8.748 87.9011 9.98V12.664C87.9011 13.896 88.0771 14.864 88.4291 15.568C88.7958 16.2573 89.4484 16.602 90.3871 16.602Z" fill="black"/>
<path d="M31.0215 22.3H96.9871V24.5H31.0215V22.3Z" fill="black"/>
<path d="M36.3724 33.908H36.2884C36.1204 34.284 35.8884 34.584 35.5924 34.808C35.3044 35.032 34.9204 35.144 34.4404 35.144C34.0884 35.144 33.7644 35.08 33.4684 34.952C33.1804 34.816 32.9324 34.616 32.7244 34.352C32.5164 34.08 32.3564 33.74 32.2444 33.332C32.1324 32.924 32.0764 32.448 32.0764 31.904C32.0764 30.816 32.2924 30.004 32.7244 29.468C33.1564 28.932 33.7284 28.664 34.4404 28.664C34.9204 28.664 35.3044 28.776 35.5924 29C35.8884 29.224 36.1204 29.524 36.2884 29.9H36.3724V26.12H37.9084V35H36.3724V33.908ZM35.0884 33.92C35.2644 33.92 35.4284 33.9 35.5804 33.86C35.7404 33.812 35.8764 33.748 35.9884 33.668C36.1084 33.58 36.2004 33.472 36.2644 33.344C36.3364 33.208 36.3724 33.052 36.3724 32.876V30.932C36.3724 30.756 36.3364 30.604 36.2644 30.476C36.2004 30.34 36.1084 30.232 35.9884 30.152C35.8764 30.064 35.7404 30 35.5804 29.96C35.4284 29.912 35.2644 29.888 35.0884 29.888C34.6404 29.888 34.2924 30.024 34.0444 30.296C33.8044 30.568 33.6844 30.94 33.6844 31.412V32.396C33.6844 32.868 33.8044 33.24 34.0444 33.512C34.2924 33.784 34.6404 33.92 35.0884 33.92ZM45.4757 27.848C45.1157 27.848 44.8597 27.772 44.7077 27.62C44.5637 27.468 44.4917 27.284 44.4917 27.068V26.78C44.4917 26.564 44.5637 26.38 44.7077 26.228C44.8597 26.076 45.1157 26 45.4757 26C45.8357 26 46.0877 26.076 46.2317 26.228C46.3837 26.38 46.4597 26.564 46.4597 26.78V27.068C46.4597 27.284 46.3837 27.468 46.2317 27.62C46.0877 27.772 45.8357 27.848 45.4757 27.848ZM42.6677 33.788H44.7077V30.02H42.6677V28.808H46.2437V33.788H48.1397V35H42.6677V33.788ZM58.359 35.648C58.359 36.296 58.087 36.772 57.543 37.076C57.007 37.388 56.167 37.544 55.023 37.544C54.463 37.544 53.995 37.508 53.619 37.436C53.243 37.372 52.939 37.276 52.707 37.148C52.483 37.02 52.323 36.864 52.227 36.68C52.131 36.504 52.083 36.304 52.083 36.08C52.083 35.736 52.183 35.472 52.383 35.288C52.583 35.104 52.863 34.968 53.223 34.88V34.784C52.983 34.704 52.791 34.592 52.647 34.448C52.511 34.304 52.443 34.104 52.443 33.848C52.443 33.544 52.543 33.316 52.743 33.164C52.951 33.012 53.223 32.896 53.559 32.816V32.756C53.191 32.58 52.903 32.332 52.695 32.012C52.487 31.692 52.383 31.304 52.383 30.848C52.383 30.504 52.443 30.2 52.563 29.936C52.691 29.664 52.867 29.436 53.091 29.252C53.323 29.06 53.599 28.916 53.919 28.82C54.239 28.716 54.595 28.664 54.987 28.664C55.403 28.664 55.779 28.72 56.115 28.832V28.568C56.115 28.328 56.191 28.128 56.343 27.968C56.503 27.808 56.723 27.728 57.003 27.728H58.119V28.88H56.655V29.084C56.959 29.268 57.191 29.508 57.351 29.804C57.519 30.092 57.603 30.44 57.603 30.848C57.603 31.192 57.539 31.5 57.411 31.772C57.291 32.044 57.115 32.272 56.883 32.456C56.659 32.64 56.383 32.784 56.055 32.888C55.735 32.984 55.379 33.032 54.987 33.032C54.827 33.032 54.671 33.028 54.519 33.02C54.375 33.004 54.235 32.976 54.099 32.936C53.987 32.976 53.879 33.04 53.775 33.128C53.671 33.216 53.619 33.332 53.619 33.476C53.619 33.668 53.711 33.788 53.895 33.836C54.079 33.876 54.299 33.896 54.555 33.896H55.959C56.391 33.896 56.759 33.94 57.063 34.028C57.367 34.108 57.615 34.228 57.807 34.388C57.999 34.54 58.139 34.724 58.227 34.94C58.315 35.156 58.359 35.392 58.359 35.648ZM56.919 35.756C56.919 35.572 56.843 35.424 56.691 35.312C56.547 35.208 56.275 35.156 55.875 35.156H53.739C53.499 35.292 53.379 35.492 53.379 35.756C53.379 35.972 53.467 36.152 53.643 36.296C53.827 36.44 54.135 36.512 54.567 36.512H55.563C56.467 36.512 56.919 36.26 56.919 35.756ZM54.987 32.024C55.379 32.024 55.667 31.932 55.851 31.748C56.035 31.556 56.127 31.308 56.127 31.004V30.692C56.127 30.388 56.035 30.144 55.851 29.96C55.667 29.768 55.379 29.672 54.987 29.672C54.603 29.672 54.319 29.768 54.135 29.96C53.951 30.144 53.859 30.388 53.859 30.692V31.004C53.859 31.308 53.951 31.556 54.135 31.748C54.319 31.932 54.603 32.024 54.987 32.024ZM65.3863 27.848C65.0263 27.848 64.7703 27.772 64.6183 27.62C64.4743 27.468 64.4023 27.284 64.4023 27.068V26.78C64.4023 26.564 64.4743 26.38 64.6183 26.228C64.7703 26.076 65.0263 26 65.3863 26C65.7463 26 65.9983 26.076 66.1423 26.228C66.2943 26.38 66.3703 26.564 66.3703 26.78V27.068C66.3703 27.284 66.2943 27.468 66.1423 27.62C65.9983 27.772 65.7463 27.848 65.3863 27.848ZM62.5783 33.788H64.6183V30.02H62.5783V28.808H66.1543V33.788H68.0503V35H62.5783V33.788ZM75.3777 35C74.7857 35 74.3497 34.844 74.0697 34.532C73.7897 34.22 73.6497 33.816 73.6497 33.32V30.02H71.8497V28.808H73.0737C73.3217 28.808 73.4977 28.76 73.6017 28.664C73.7057 28.56 73.7577 28.38 73.7577 28.124V26.624H75.1857V28.808H77.7057V30.02H75.1857V33.788H77.7057V35H75.3777ZM87.193 35C86.817 35 86.525 34.908 86.317 34.724C86.117 34.532 85.997 34.268 85.957 33.932H85.897C85.785 34.316 85.565 34.616 85.237 34.832C84.909 35.04 84.505 35.144 84.025 35.144C83.401 35.144 82.905 34.98 82.537 34.652C82.169 34.324 81.985 33.868 81.985 33.284C81.985 32.036 82.901 31.412 84.733 31.412H85.825V31.004C85.825 30.612 85.729 30.316 85.537 30.116C85.345 29.916 85.033 29.816 84.601 29.816C84.209 29.816 83.893 29.892 83.653 30.044C83.413 30.196 83.209 30.392 83.041 30.632L82.165 29.888C82.357 29.544 82.665 29.256 83.089 29.024C83.521 28.784 84.077 28.664 84.757 28.664C85.573 28.664 86.209 28.856 86.665 29.24C87.129 29.616 87.361 30.18 87.361 30.932V33.848H88.093V35H87.193ZM84.541 34.088C84.909 34.088 85.213 34.004 85.453 33.836C85.701 33.66 85.825 33.424 85.825 33.128V32.3H84.769C83.929 32.3 83.509 32.564 83.509 33.092V33.332C83.509 33.58 83.601 33.768 83.785 33.896C83.969 34.024 84.221 34.088 84.541 34.088ZM92.1323 33.788H94.1003V27.332H92.1323V26.12H95.6363V33.788H97.6163V35H92.1323V33.788Z" fill="black"/>
</svg>
