<svg width="21" height="21" viewBox="0 0 21 21" fill="none" xmlns="http://www.w3.org/2000/svg">
<path fill-rule="evenodd" clip-rule="evenodd" d="M19.7939 2.22719C19.915 2.10619 20.0111 1.96252 20.0768 1.80436C20.1424 1.64621 20.1762 1.47669 20.1763 1.30546C20.1764 1.13424 20.1428 0.964667 20.0774 0.806435C20.0119 0.648203 19.916 0.504408 19.795 0.383259C19.674 0.26211 19.5303 0.165981 19.3722 0.100358C19.214 0.0347362 19.0445 0.000906676 18.8733 0.000801436C18.702 0.000696196 18.5325 0.0343173 18.3742 0.099745C18.216 0.165173 18.0722 0.261126 17.9511 0.382126L10.088 8.24519L2.22719 0.382126C1.98252 0.137455 1.65068 -2.57803e-09 1.30466 0C0.958642 2.57803e-09 0.626797 0.137455 0.382126 0.382126C0.137455 0.626797 2.57803e-09 0.958642 0 1.30466C-2.57803e-09 1.65068 0.137455 1.98252 0.382126 2.22719L8.24519 10.088L0.382126 17.9488C0.260977 18.0699 0.164876 18.2138 0.0993111 18.3721C0.0337458 18.5303 0 18.7 0 18.8713C0 19.0427 0.0337458 19.2123 0.0993111 19.3706C0.164876 19.5289 0.260977 19.6727 0.382126 19.7939C0.626797 20.0385 0.958642 20.176 1.30466 20.176C1.47599 20.176 1.64564 20.1422 1.80393 20.0767C1.96222 20.0111 2.10604 19.915 2.22719 19.7939L10.088 11.9308L17.9511 19.7939C18.1957 20.0382 18.5275 20.1754 18.8733 20.1752C19.2191 20.175 19.5506 20.0374 19.795 19.7927C20.0394 19.5481 20.1765 19.2163 20.1763 18.8705C20.1761 18.5247 20.0385 18.1932 19.7939 17.9488L11.9308 10.088L19.7939 2.22719Z" fill="#191C19"/>
</svg>
